<?xml version="1.0" encoding="utf-8"?>
<!-- Generator: Adobe Illustrator 24.3.0, SVG Export Plug-In . SVG Version: 6.00 Build 0)  -->
<svg version="1.1" id="Layer_1" xmlns="http://www.w3.org/2000/svg" xmlns:xlink="http://www.w3.org/1999/xlink" x="0px" y="0px"
	 viewBox="0 0 89.9 90.1" enable-background="new 0 0 89.9 90.1" xml:space="preserve">
<g>
	<linearGradient id="SVGID_1_" gradientUnits="userSpaceOnUse" x1="44.4401" y1="23.8063" x2="44.4401" y2="10.2361">
		<stop  offset="0" style="stop-color:#616264"/>
		<stop  offset="0.5324" style="stop-color:#8D8C8E"/>
		<stop  offset="1" style="stop-color:#616264"/>
	</linearGradient>
	
		<rect x="30.9" y="10.2" fill="url(#SVGID_1_)" stroke="#4C4C4D" stroke-linejoin="round" stroke-miterlimit="10" width="27.1" height="13.6"/>
	<linearGradient id="SVGID_2_" gradientUnits="userSpaceOnUse" x1="46.0754" y1="44.3262" x2="42.3829" y2="44.3262">
		<stop  offset="0" style="stop-color:#3E3E3E"/>
		<stop  offset="0.1122" style="stop-color:#434343"/>
		<stop  offset="0.2995" style="stop-color:#505051"/>
		<stop  offset="0.5" style="stop-color:#616365"/>
		<stop  offset="1" style="stop-color:#3E3E3E"/>
	</linearGradient>
	
		<rect x="42.4" y="23.8" fill="url(#SVGID_2_)" stroke="#4C4C4D" stroke-linejoin="round" stroke-miterlimit="10" width="3.7" height="41"/>
	
		<linearGradient id="SVGID_3_" gradientUnits="userSpaceOnUse" x1="2386.6665" y1="310.8622" x2="2402.6902" y2="294.8386" gradientTransform="matrix(4.720930e-02 0.9989 0.9989 -4.720930e-02 -391.8115 -2305.7854)">
		<stop  offset="0" style="stop-color:#3E3E3E"/>
		<stop  offset="0.3733" style="stop-color:#3F3F3F"/>
		<stop  offset="0.5734" style="stop-color:#434343"/>
		<stop  offset="0.7324" style="stop-color:#4A4A4A"/>
		<stop  offset="0.8688" style="stop-color:#535455"/>
		<stop  offset="0.9912" style="stop-color:#606263"/>
		<stop  offset="1" style="stop-color:#616365"/>
	</linearGradient>
	<path fill="url(#SVGID_3_)" stroke="#4C4C4D" stroke-linejoin="round" stroke-miterlimit="10" d="M37.9,69.6l-15.3-5.8
		C20.3,63,17.8,63.4,16,65l-6.9,5.8c-1.2,1-0.9,2.8,0.5,3.4l9.4,4c3.6,1.6,7.8,1.4,11.2-0.5l8-4.3C39.6,72.5,39.5,70.3,37.9,69.6z"
		/>
	
		<linearGradient id="SVGID_4_" gradientUnits="userSpaceOnUse" x1="2394.4546" y1="475.6487" x2="2410.4783" y2="459.6252" gradientTransform="matrix(-4.720930e-02 0.9989 -0.9989 -4.720930e-02 645.7916 -2305.7854)">
		<stop  offset="0" style="stop-color:#3E3E3E"/>
		<stop  offset="0.3733" style="stop-color:#3F3F3F"/>
		<stop  offset="0.5734" style="stop-color:#434343"/>
		<stop  offset="0.7324" style="stop-color:#4A4A4A"/>
		<stop  offset="0.8688" style="stop-color:#535455"/>
		<stop  offset="0.9912" style="stop-color:#606263"/>
		<stop  offset="1" style="stop-color:#616365"/>
	</linearGradient>
	<path fill="url(#SVGID_4_)" stroke="#4C4C4D" stroke-linejoin="round" stroke-miterlimit="10" d="M51.1,69.6l15.3-5.8
		c2.3-0.9,4.8-0.4,6.6,1.1l6.9,5.8c1.2,1,0.9,2.8-0.5,3.4l-9.4,4c-3.6,1.6-7.8,1.4-11.2-0.5l-8-4.3C49.4,72.5,49.5,70.3,51.1,69.6z"
		/>
	<linearGradient id="SVGID_5_" gradientUnits="userSpaceOnUse" x1="52.1945" y1="71.1102" x2="36.7913" y2="71.1102">
		<stop  offset="0" style="stop-color:#616264"/>
		<stop  offset="0.5324" style="stop-color:#8D8C8E"/>
		<stop  offset="1" style="stop-color:#616264"/>
	</linearGradient>
	
		<rect x="36.8" y="64.3" fill="url(#SVGID_5_)" stroke="#4C4C4D" stroke-linejoin="round" stroke-miterlimit="10" width="15.4" height="13.6"/>
</g>
</svg>
