<?xml version="1.0" encoding="utf-8"?>
<!-- Generator: Adobe Illustrator 24.3.0, SVG Export Plug-In . SVG Version: 6.00 Build 0)  -->
<svg version="1.1" id="Layer_1" xmlns="http://www.w3.org/2000/svg" xmlns:xlink="http://www.w3.org/1999/xlink" x="0px" y="0px"
	 viewBox="0 0 90.2 79.7" enable-background="new 0 0 90.2 79.7" xml:space="preserve">
<linearGradient id="SVGID_1_" gradientUnits="userSpaceOnUse" x1="2490.1375" y1="69.1097" x2="2490.1375" y2="40.1859" gradientTransform="matrix(-1 0 0 1 2527.2183 0)">
	<stop  offset="0" style="stop-color:#616264"/>
	<stop  offset="0.5324" style="stop-color:#8D8C8E"/>
	<stop  offset="1" style="stop-color:#616264"/>
</linearGradient>
<path fill="url(#SVGID_1_)" d="M58.7,63.7L39.6,41.3c-1.3-1.5-3.7-1.5-5,0L15.4,63.7c-1.8,2.1-0.3,5.4,2.5,5.4h38.4
	C59.1,69.1,60.6,65.8,58.7,63.7z"/>
<radialGradient id="SVGID_2_" cx="2490.1375" cy="38.4328" r="26.2746" gradientTransform="matrix(-1 0 0 1 2527.2183 0)" gradientUnits="userSpaceOnUse">
	<stop  offset="0" style="stop-color:#616264"/>
	<stop  offset="0.5415" style="stop-color:#8D8C8E"/>
	<stop  offset="1" style="stop-color:#616264"/>
</radialGradient>
<circle fill="url(#SVGID_2_)" cx="37.1" cy="38.4" r="26.3"/>
<linearGradient id="SVGID_3_" gradientUnits="userSpaceOnUse" x1="2470.4543" y1="38.4328" x2="2470.4543" y2="12.1582" gradientTransform="matrix(-1 0 0 1 2527.2183 0)">
	<stop  offset="0" style="stop-color:#616264"/>
	<stop  offset="0.5324" style="stop-color:#8D8C8E"/>
	<stop  offset="1" style="stop-color:#616264"/>
</linearGradient>
<path fill="url(#SVGID_3_)" d="M37.1,12.2c0,0,0.5,26.3,26.3,26.3h13.1V12.2H37.1z"/>
<g>
	
		<radialGradient id="SVGID_4_" cx="2462.1187" cy="38.7025" r="3.817" gradientTransform="matrix(-1 0 0 1 2499.1995 0)" gradientUnits="userSpaceOnUse">
		<stop  offset="0" style="stop-color:#616264"/>
		<stop  offset="1" style="stop-color:#3D3D3D"/>
	</radialGradient>
	<circle fill="url(#SVGID_4_)" cx="37.1" cy="38.7" r="3.8"/>
	
		<linearGradient id="SVGID_5_" gradientUnits="userSpaceOnUse" x1="2462.1187" y1="27.5003" x2="2473.0752" y2="27.5003" gradientTransform="matrix(-1 0 0 1 2499.1995 0)">
		<stop  offset="0" style="stop-color:#3D3D3D"/>
		<stop  offset="0.374" style="stop-color:#3F3E3F"/>
		<stop  offset="0.5745" style="stop-color:#424343"/>
		<stop  offset="0.7337" style="stop-color:#494A4A"/>
		<stop  offset="0.8706" style="stop-color:#535455"/>
		<stop  offset="0.9931" style="stop-color:#606163"/>
		<stop  offset="1" style="stop-color:#616264"/>
	</linearGradient>
	<path fill="url(#SVGID_5_)" d="M37.1,20.4c-6.7,6.7,0,12.4,0,12.4s-2.3-0.1-4.1,1.7c-10.2-6.8-6-11.2-6-11.2S29.8,20.4,37.1,20.4z"
		/>
	
		<linearGradient id="SVGID_6_" gradientUnits="userSpaceOnUse" x1="2247.2651" y1="1772.4821" x2="2258.2217" y2="1772.4821" gradientTransform="matrix(-0.5 -0.866 -0.866 0.5 2705.4292 1093.0491)">
		<stop  offset="0" style="stop-color:#3D3D3D"/>
		<stop  offset="0.374" style="stop-color:#3F3E3F"/>
		<stop  offset="0.5745" style="stop-color:#424343"/>
		<stop  offset="0.7337" style="stop-color:#494A4A"/>
		<stop  offset="0.8706" style="stop-color:#535455"/>
		<stop  offset="0.9931" style="stop-color:#606163"/>
		<stop  offset="1" style="stop-color:#616264"/>
	</linearGradient>
	<path fill="url(#SVGID_6_)" d="M52.9,29.6c-9.2-2.5-10.7,6.2-10.7,6.2s-1-2-3.6-2.7c0.8-12.2,6.7-10.8,6.7-10.8
		S49.2,23.2,52.9,29.6z"/>
	
		<linearGradient id="SVGID_7_" gradientUnits="userSpaceOnUse" x1="628.6399" y1="2458.9043" x2="639.5964" y2="2458.9043" gradientTransform="matrix(0.5 -0.866 -0.866 -0.5 1861.9358 1818.1738)">
		<stop  offset="0" style="stop-color:#3D3D3D"/>
		<stop  offset="0.374" style="stop-color:#3F3E3F"/>
		<stop  offset="0.5745" style="stop-color:#424343"/>
		<stop  offset="0.7337" style="stop-color:#494A4A"/>
		<stop  offset="0.8706" style="stop-color:#535455"/>
		<stop  offset="0.9931" style="stop-color:#606163"/>
		<stop  offset="1" style="stop-color:#616264"/>
	</linearGradient>
	<path fill="url(#SVGID_7_)" d="M52.9,47.8c-2.4-9.2-10.7-6.2-10.7-6.2s1.2-1.9,0.6-4.4c11-5.4,12.7,0.4,12.7,0.4
		S56.6,41.5,52.9,47.8z"/>
	
		<linearGradient id="SVGID_8_" gradientUnits="userSpaceOnUse" x1="-775.1319" y1="1400.3448" x2="-764.1754" y2="1400.3448" gradientTransform="matrix(1 0 0 -1 812.2126 1450.2495)">
		<stop  offset="0" style="stop-color:#3D3D3D"/>
		<stop  offset="0.374" style="stop-color:#3F3E3F"/>
		<stop  offset="0.5745" style="stop-color:#424343"/>
		<stop  offset="0.7337" style="stop-color:#494A4A"/>
		<stop  offset="0.8706" style="stop-color:#535455"/>
		<stop  offset="0.9931" style="stop-color:#606163"/>
		<stop  offset="1" style="stop-color:#616264"/>
	</linearGradient>
	<path fill="url(#SVGID_8_)" d="M37.1,57c6.7-6.7,0-12.4,0-12.4s2.3,0.1,4.1-1.7c10.2,6.8,6,11.2,6,11.2S44.4,57,37.1,57z"/>
	
		<linearGradient id="SVGID_9_" gradientUnits="userSpaceOnUse" x1="-560.2783" y1="-344.6369" x2="-549.3219" y2="-344.6369" gradientTransform="matrix(0.5 0.866 0.866 -0.5 605.9829 357.2004)">
		<stop  offset="0" style="stop-color:#3D3D3D"/>
		<stop  offset="0.374" style="stop-color:#3F3E3F"/>
		<stop  offset="0.5745" style="stop-color:#424343"/>
		<stop  offset="0.7337" style="stop-color:#494A4A"/>
		<stop  offset="0.8706" style="stop-color:#535455"/>
		<stop  offset="0.9931" style="stop-color:#606163"/>
		<stop  offset="1" style="stop-color:#616264"/>
	</linearGradient>
	<path fill="url(#SVGID_9_)" d="M21.3,47.8c9.2,2.5,10.7-6.2,10.7-6.2s1,2,3.6,2.7c-0.8,12.2-6.7,10.8-6.7,10.8S24.9,54.2,21.3,47.8
		z"/>
	
		<linearGradient id="SVGID_10_" gradientUnits="userSpaceOnUse" x1="1058.3469" y1="-1031.0592" x2="1069.3035" y2="-1031.0592" gradientTransform="matrix(-0.5 0.866 0.866 0.5 1449.4763 -367.9244)">
		<stop  offset="0" style="stop-color:#3D3D3D"/>
		<stop  offset="0.374" style="stop-color:#3F3E3F"/>
		<stop  offset="0.5745" style="stop-color:#424343"/>
		<stop  offset="0.7337" style="stop-color:#494A4A"/>
		<stop  offset="0.8706" style="stop-color:#535455"/>
		<stop  offset="0.9931" style="stop-color:#606163"/>
		<stop  offset="1" style="stop-color:#616264"/>
	</linearGradient>
	<path fill="url(#SVGID_10_)" d="M21.3,29.6c2.4,9.2,10.7,6.2,10.7,6.2s-1.2,1.9-0.6,4.4c-11,5.4-12.7-0.4-12.7-0.4
		S17.6,35.9,21.3,29.6z"/>
</g>
<path fill="none" stroke="#4C4C4D" stroke-linecap="round" stroke-linejoin="round" stroke-miterlimit="10" d="M37.1,12.2
	c-14.5,0-26.3,11.8-26.3,26.3c0,8,3.6,15.1,9.2,20l-4.6,5.3c-1.8,2.1-0.3,5.4,2.5,5.4h38.4c2.8,0,4.3-3.3,2.5-5.4l-4.6-5.3
	c5.6-4.8,9.2-12,9.2-20h13.1V12.2H37.1z"/>
<g>
	<radialGradient id="SVGID_11_" cx="76.2279" cy="25.2955" r="10.3926" gradientUnits="userSpaceOnUse">
		<stop  offset="0" style="stop-color:#616264"/>
		<stop  offset="1" style="stop-color:#3D3D3D"/>
	</radialGradient>
	<ellipse fill="url(#SVGID_11_)" cx="76.2" cy="25.3" rx="6.6" ry="13.1"/>
	<ellipse fill="none" stroke="#2D2D2D" stroke-width="1.3127" stroke-miterlimit="10" cx="76.7" cy="25.3" rx="6.6" ry="13.1"/>
</g>
</svg>
