<?xml version="1.0" encoding="utf-8"?>
<!-- Generator: Adobe Illustrator 24.3.0, SVG Export Plug-In . SVG Version: 6.00 Build 0)  -->
<svg version="1.1" id="Layer_1" xmlns="http://www.w3.org/2000/svg" xmlns:xlink="http://www.w3.org/1999/xlink" x="0px" y="0px"
	 viewBox="0 0 69.9 69.9" enable-background="new 0 0 69.9 69.9" xml:space="preserve">
<linearGradient id="SVGID_1_" gradientUnits="userSpaceOnUse" x1="9.8428" y1="14.6684" x2="49.952" y2="54.7776">
	<stop  offset="0" style="stop-color:#616365"/>
	<stop  offset="0.4956" style="stop-color:#8C8B8D"/>
	<stop  offset="0.5521" style="stop-color:#828284"/>
	<stop  offset="0.7042" style="stop-color:#6F7072"/>
	<stop  offset="0.8546" style="stop-color:#656668"/>
	<stop  offset="1" style="stop-color:#616365"/>
</linearGradient>
<path fill="url(#SVGID_1_)" d="M41.5,9.5l-23.2,0c-4.4,0-8,3.6-8,8v34.4c0,4.4,3.6,8,8,8l23.2,0c4.4,0,8-3.6,8-8V17.5
	C49.5,13.1,45.9,9.5,41.5,9.5z"/>
<linearGradient id="SVGID_2_" gradientUnits="userSpaceOnUse" x1="-33.4245" y1="219.1496" x2="-33.4245" y2="201.3606" gradientTransform="matrix(-1 0 0 -1 11.5201 261.2823)">
	<stop  offset="0" style="stop-color:#616365"/>
	<stop  offset="0.5324" style="stop-color:#8C8B8D"/>
	<stop  offset="1" style="stop-color:#616365"/>
</linearGradient>
<path fill="url(#SVGID_2_)" d="M31.6,59.9c0,0,0.4-17.8,17.8-17.8l8.9,0l0,17.8L31.6,59.9z"/>
<g>
	<path opacity="0.33" fill="#6BBE45" d="M33.9,55.2h-7.5c-7.8,0-9.5-6.3-9.5-14.1V28.3c0-7.8,1.7-14.1,9.5-14.1h7.5
		c7.8,0,8.8,6.3,8.8,14.1v12.8C42.7,48.9,41.7,55.2,33.9,55.2z"/>
	<radialGradient id="SVGID_3_" cx="29.8974" cy="34.723" r="17.6486" gradientUnits="userSpaceOnUse">
		<stop  offset="0" style="stop-color:#616264"/>
		<stop  offset="1" style="stop-color:#3D3D3D"/>
	</radialGradient>
	<path fill="url(#SVGID_3_)" stroke="#62BC46" stroke-width="1.6057" stroke-miterlimit="10" d="M37.6,14.2H22.2
		c-3.6,0-6.5,2.9-6.5,6.5v28.1c0,3.6,2.9,6.5,6.5,6.5h15.5c3.6,0,6.5-2.9,6.5-6.5V20.7C44.1,17.1,41.2,14.2,37.6,14.2z M30.2,50.7
		c-0.1,0-0.2,0-0.2,0c-0.1,0-0.2,0-0.2,0c-2.5-0.1-4.2-2.8-3.3-5.2l0.5-1.3l2.8-7.6c0.1-0.3,0.5-0.3,0.6,0l2.8,7.6l0.5,1.3
		C34.4,48,32.8,50.6,30.2,50.7z M40.4,23l-9.4,8c-0.6,0.5-1.5,0.5-2.1,0l-9.4-8c-1.2-1-0.5-2.9,1.1-2.9h18.8
		C40.9,20.1,41.6,22,40.4,23z"/>
</g>
<path fill="none" stroke="#4C4C4D" stroke-miterlimit="10" d="M58.3,42.1h-8.8V17.5c0-4.4-3.6-8-8-8l-23.2,0c-4.4,0-8,3.6-8,8v34.4
	c0,4.4,3.6,8,8,8l23.2,0c0,0,0,0,0,0l16.8,0c0,0,0,0,0,0c2.5,0,4.5-4,4.5-8.9C62.7,46.1,60.7,42.1,58.3,42.1z"/>
<radialGradient id="SVGID_4_" cx="58.2708" cy="51.0272" r="7.0362" gradientUnits="userSpaceOnUse">
	<stop  offset="0" style="stop-color:#616264"/>
	<stop  offset="1" style="stop-color:#3D3D3D"/>
</radialGradient>
<ellipse fill="url(#SVGID_4_)" cx="58.3" cy="51" rx="4.5" ry="8.9"/>
<ellipse fill="none" stroke="#2D2D2D" stroke-width="0.8887" stroke-miterlimit="10" cx="58.6" cy="51" rx="4.5" ry="8.9"/>
</svg>
