<?xml version="1.0" encoding="utf-8"?>
<!-- Generator: Adobe Illustrator 24.3.0, SVG Export Plug-In . SVG Version: 6.00 Build 0)  -->
<svg version="1.1" id="Layer_1" xmlns="http://www.w3.org/2000/svg" xmlns:xlink="http://www.w3.org/1999/xlink" x="0px" y="0px"
	 viewBox="0 0 90.2 90.2" enable-background="new 0 0 90.2 90.2" xml:space="preserve">
<g>
	
		<linearGradient id="SVGID_1_" gradientUnits="userSpaceOnUse" x1="1180.7344" y1="-944.2527" x2="1200.7305" y2="-944.2527" gradientTransform="matrix(-3.464102e-07 -1 1 -3.464102e-07 991.0477 1264.9832)">
		<stop  offset="0" style="stop-color:#6F7173"/>
		<stop  offset="0.501" style="stop-color:#D3D5D6"/>
		<stop  offset="1" style="stop-color:#6F7173"/>
	</linearGradient>
	<path fill="url(#SVGID_1_)" d="M8.1,81c1.8,2,4.5,3.3,7.4,3.3h70v-20l-60,0C25.5,64.3,13.5,75.2,8.1,81z"/>
	
		<linearGradient id="SVGID_2_" gradientUnits="userSpaceOnUse" x1="1222.1931" y1="-965.5554" x2="1222.1931" y2="-985.5515" gradientTransform="matrix(-3.464102e-07 -1 1 -3.464102e-07 991.0477 1264.9832)">
		<stop  offset="0" style="stop-color:#6F7173"/>
		<stop  offset="0.501" style="stop-color:#D3D5D6"/>
		<stop  offset="1" style="stop-color:#6F7173"/>
	</linearGradient>
	<path fill="url(#SVGID_2_)" d="M5.5,74.3c0,2.8,1.1,5.3,2.9,7.1l17.1-17.1v-60l-20,0L5.5,74.3z"/>
</g>
<linearGradient id="SVGID_3_" gradientUnits="userSpaceOnUse" x1="341.2668" y1="91.8668" x2="341.2668" y2="68.5496" gradientTransform="matrix(1 0 0 1 -258.5284 -5.9571)">
	<stop  offset="0" style="stop-color:#333334"/>
	<stop  offset="0.501" style="stop-color:#7D7E81"/>
	<stop  offset="1" style="stop-color:#333334"/>
</linearGradient>
<rect x="79.1" y="62.6" fill="url(#SVGID_3_)" width="7.2" height="23.3"/>
<linearGradient id="SVGID_4_" gradientUnits="userSpaceOnUse" x1="-281.6664" y1="-91.4155" x2="-281.6664" y2="-114.7326" gradientTransform="matrix(6.123234e-17 1 -1 6.123234e-17 -87.5769 289.529)">
	<stop  offset="0" style="stop-color:#333334"/>
	<stop  offset="0.501" style="stop-color:#7D7E81"/>
	<stop  offset="1" style="stop-color:#333334"/>
</linearGradient>
<polygon fill="url(#SVGID_4_)" points="3.8,11.5 3.8,4.3 27.2,4.3 27.2,11.5 "/>
</svg>
