<?xml version="1.0" encoding="utf-8"?>
<!-- Generator: Adobe Illustrator 24.3.0, SVG Export Plug-In . SVG Version: 6.00 Build 0)  -->
<svg version="1.1" id="Layer_1" xmlns="http://www.w3.org/2000/svg" xmlns:xlink="http://www.w3.org/1999/xlink" x="0px" y="0px"
	 viewBox="0 0 109.5 79.7" enable-background="new 0 0 109.5 79.7" xml:space="preserve">
<g>
	<path fill="none" stroke="#282828" stroke-width="2" stroke-linecap="round" stroke-linejoin="round" stroke-miterlimit="10" d="
		M9.8,63.6V15.2c0-3.1,2.5-5.6,5.6-5.6h78.8c3.1,0,5.6,2.5,5.6,5.6v48.5c0,3.1-2.5,5.6-5.6,5.6H15.3C12.3,69.2,9.8,66.7,9.8,63.6z"
		/>
	
		<polyline fill="none" stroke="#282828" stroke-width="2" stroke-linecap="round" stroke-linejoin="round" stroke-miterlimit="10" points="
		99.8,16.2 92.6,9.6 86.1,16.2 78.7,9.6 71.9,16.2 65.2,9.6 58.2,16.2 51,9.6 44.2,16.2 36.7,9.6 30.2,16.2 23.2,9.6 16.5,16.2 
		11.4,11.2 	"/>
	
		<polyline fill="none" stroke="#282828" stroke-width="2" stroke-linecap="round" stroke-linejoin="round" stroke-miterlimit="10" points="
		99.8,22.8 92.6,16.2 86.1,22.8 78.7,16.2 71.9,22.8 65.2,16.2 58.2,22.8 51,16.2 44.2,22.8 36.7,16.2 30.2,22.8 23.2,16.2 
		16.5,22.8 9.8,16.2 	"/>
	
		<polyline fill="none" stroke="#282828" stroke-width="2" stroke-linecap="round" stroke-linejoin="round" stroke-miterlimit="10" points="
		99.8,29.4 92.6,22.8 86.1,29.4 78.7,22.8 71.9,29.4 65.2,22.8 58.2,29.4 51,22.8 44.2,29.4 36.7,22.8 30.2,29.4 23.2,22.8 
		16.5,29.4 9.8,22.8 	"/>
	
		<polyline fill="none" stroke="#282828" stroke-width="2" stroke-linecap="round" stroke-linejoin="round" stroke-miterlimit="10" points="
		99.8,36.1 92.6,29.4 86.1,36.1 78.7,29.4 71.9,36.1 65.2,29.4 58.2,36.1 51,29.4 44.2,36.1 36.7,29.4 30.2,36.1 23.2,29.4 
		16.5,36.1 9.8,29.4 	"/>
	
		<polyline fill="none" stroke="#282828" stroke-width="2" stroke-linecap="round" stroke-linejoin="round" stroke-miterlimit="10" points="
		99.8,42.7 92.6,36.1 86.1,42.7 78.7,36.1 71.9,42.7 65.2,36.1 58.2,42.7 51,36.1 44.2,42.7 36.7,36.1 30.2,42.7 23.2,36.1 
		16.5,42.7 9.8,36.1 	"/>
	
		<polyline fill="none" stroke="#282828" stroke-width="2" stroke-linecap="round" stroke-linejoin="round" stroke-miterlimit="10" points="
		99.8,49.3 92.6,42.7 86.1,49.3 78.7,42.7 71.9,49.3 65.2,42.7 58.2,49.3 51,42.7 44.2,49.3 36.7,42.7 30.2,49.3 23.2,42.7 
		16.5,49.3 9.8,42.7 	"/>
	
		<polyline fill="none" stroke="#282828" stroke-width="2" stroke-linecap="round" stroke-linejoin="round" stroke-miterlimit="10" points="
		99.8,56 92.6,49.3 86.1,56 78.7,49.3 71.9,56 65.2,49.3 58.2,56 51,49.3 44.2,56 36.7,49.3 30.2,56 23.2,49.3 16.5,56 9.8,49.3 	
		"/>
	
		<polyline fill="none" stroke="#282828" stroke-width="2" stroke-linecap="round" stroke-linejoin="round" stroke-miterlimit="10" points="
		99.8,62.6 92.6,56 86.1,62.6 78.7,56 71.9,62.6 65.2,56 58.2,62.6 51,56 44.2,62.6 36.7,56 30.2,62.6 23.2,56 16.5,62.6 9.8,56 	
		"/>
	
		<polyline fill="none" stroke="#282828" stroke-width="2" stroke-linecap="round" stroke-linejoin="round" stroke-miterlimit="10" points="
		98.1,67.6 92.6,62.6 86.1,69.2 78.7,62.6 71.9,69.2 65.2,62.6 58.2,69.2 51,62.6 44.2,69.2 36.7,62.6 30.2,69.2 23.2,62.6 
		16.5,69.2 9.8,62.6 	"/>
</g>
</svg>
