<?xml version="1.0" encoding="utf-8"?>
<!-- Generator: Adobe Illustrator 24.3.0, SVG Export Plug-In . SVG Version: 6.00 Build 0)  -->
<svg version="1.1" id="Layer_1" xmlns="http://www.w3.org/2000/svg" xmlns:xlink="http://www.w3.org/1999/xlink" x="0px" y="0px"
	 viewBox="0 0 90.2 79.7" enable-background="new 0 0 90.2 79.7" xml:space="preserve">
<linearGradient id="SVGID_1_" gradientUnits="userSpaceOnUse" x1="2494.1768" y1="69.9651" x2="2494.1768" y2="41.0413" gradientTransform="matrix(-1 0 0 1 2527.2183 0)">
	<stop  offset="0" style="stop-color:#616264"/>
	<stop  offset="0.5324" style="stop-color:#8D8C8E"/>
	<stop  offset="1" style="stop-color:#616264"/>
</linearGradient>
<path fill="url(#SVGID_1_)" d="M54.7,64.6L35.5,42.2c-1.3-1.5-3.7-1.5-5,0L11.4,64.6c-1.8,2.1-0.3,5.4,2.5,5.4h38.4
	C55,70,56.5,66.7,54.7,64.6z"/>
<radialGradient id="SVGID_2_" cx="2494.1768" cy="39.2882" r="26.2746" gradientTransform="matrix(-1 0 0 1 2527.2183 0)" gradientUnits="userSpaceOnUse">
	<stop  offset="0" style="stop-color:#616264"/>
	<stop  offset="0.5415" style="stop-color:#8D8C8E"/>
	<stop  offset="1" style="stop-color:#616264"/>
</radialGradient>
<circle fill="url(#SVGID_2_)" cx="33" cy="39.3" r="26.3"/>
<linearGradient id="SVGID_3_" gradientUnits="userSpaceOnUse" x1="2474.4939" y1="39.2882" x2="2474.4939" y2="13.0136" gradientTransform="matrix(-1 0 0 1 2527.2183 0)">
	<stop  offset="0" style="stop-color:#616264"/>
	<stop  offset="0.5324" style="stop-color:#8D8C8E"/>
	<stop  offset="1" style="stop-color:#616264"/>
</linearGradient>
<path fill="url(#SVGID_3_)" d="M33,13c0,0,0.5,26.3,26.3,26.3h13.1V13H33z"/>
<path fill="none" stroke="#4C4C4D" stroke-linecap="round" stroke-linejoin="round" stroke-miterlimit="10" d="M33,13
	C18.5,13,6.8,24.8,6.8,39.3c0,8,3.6,15.1,9.2,20l-4.6,5.3c-1.8,2.1-0.3,5.4,2.5,5.4h38.4c2.8,0,4.3-3.3,2.5-5.4l-4.6-5.3
	c5.6-4.8,9.2-12,9.2-20h13.1V13H33z"/>
<g>
	
		<radialGradient id="SVGID_4_" cx="2474.8176" cy="560.1531" r="5.2801" gradientTransform="matrix(-0.9247 -0.3807 -0.3807 0.9247 2534.7705 463.3689)" gradientUnits="userSpaceOnUse">
		<stop  offset="0" style="stop-color:#616264"/>
		<stop  offset="1" style="stop-color:#3D3D3D"/>
	</radialGradient>
	<circle fill="url(#SVGID_4_)" cx="33" cy="39.3" r="5.3"/>
	<g>
		
			<linearGradient id="SVGID_5_" gradientUnits="userSpaceOnUse" x1="23.5004" y1="549.4774" x2="25.2634" y2="549.4774" gradientTransform="matrix(0.9247 0.3807 -0.3807 0.9247 223.7226 -487.9752)">
			<stop  offset="0" style="stop-color:#3D3D3D"/>
			<stop  offset="0.5" style="stop-color:#5C5E5F"/>
			<stop  offset="1" style="stop-color:#3D3D3D"/>
		</linearGradient>
		<polygon fill="url(#SVGID_5_)" points="35.6,35.3 34,34.6 38.6,23.6 40.2,24.2 		"/>
		
			<radialGradient id="SVGID_6_" cx="2474.8176" cy="543.5127" r="1.5867" gradientTransform="matrix(-0.9247 -0.3807 -0.3807 0.9247 2534.7705 463.3689)" gradientUnits="userSpaceOnUse">
			<stop  offset="0" style="stop-color:#616264"/>
			<stop  offset="1" style="stop-color:#3D3D3D"/>
		</radialGradient>
		<circle fill="url(#SVGID_6_)" cx="39.4" cy="23.9" r="1.6"/>
	</g>
	<g>
		
			<linearGradient id="SVGID_7_" gradientUnits="userSpaceOnUse" x1="378.4741" y1="-313.606" x2="380.237" y2="-313.606" gradientTransform="matrix(0.923 -0.3847 0.3847 0.923 -200.5798 464.8449)">
			<stop  offset="0" style="stop-color:#3D3D3D"/>
			<stop  offset="0.5" style="stop-color:#5C5E5F"/>
			<stop  offset="1" style="stop-color:#3D3D3D"/>
		</linearGradient>
		<polygon fill="url(#SVGID_7_)" points="32,34.6 30.4,35.3 25.8,24.3 27.5,23.6 		"/>
		
			<radialGradient id="SVGID_8_" cx="2119.844" cy="-319.5707" r="1.5867" gradientTransform="matrix(-0.923 0.3847 0.3847 0.923 2106.2798 -496.6109)" gradientUnits="userSpaceOnUse">
			<stop  offset="0" style="stop-color:#616264"/>
			<stop  offset="1" style="stop-color:#3D3D3D"/>
		</radialGradient>
		<circle fill="url(#SVGID_8_)" cx="26.6" cy="23.9" r="1.6"/>
	</g>
	<g>
		
			<linearGradient id="SVGID_9_" gradientUnits="userSpaceOnUse" x1="1239.7705" y1="-672.8939" x2="1241.5334" y2="-672.8939" gradientTransform="matrix(0.3807 -0.9247 0.9247 0.3807 173.1386 1438.6177)">
			<stop  offset="0" style="stop-color:#3D3D3D"/>
			<stop  offset="0.5" style="stop-color:#5C5E5F"/>
			<stop  offset="1" style="stop-color:#3D3D3D"/>
		</linearGradient>
		<polygon fill="url(#SVGID_9_)" points="29,36.7 28.3,38.3 17.3,33.8 18,32.1 		"/>
		
			<radialGradient id="SVGID_10_" cx="1258.5476" cy="-678.8585" r="1.5867" gradientTransform="matrix(-0.3807 0.9247 0.9247 0.3807 1124.4827 -872.4304)" gradientUnits="userSpaceOnUse">
			<stop  offset="0" style="stop-color:#616264"/>
			<stop  offset="1" style="stop-color:#3D3D3D"/>
		</radialGradient>
		<circle fill="url(#SVGID_10_)" cx="17.7" cy="33" r="1.6"/>
	</g>
	<g>
		
			<linearGradient id="SVGID_11_" gradientUnits="userSpaceOnUse" x1="2102.854" y1="-317.9202" x2="2104.6169" y2="-317.9202" gradientTransform="matrix(-0.3847 -0.923 0.923 -0.3847 1125.9586 1862.92)">
			<stop  offset="0" style="stop-color:#3D3D3D"/>
			<stop  offset="0.5" style="stop-color:#5C5E5F"/>
			<stop  offset="1" style="stop-color:#3D3D3D"/>
		</linearGradient>
		<polygon fill="url(#SVGID_11_)" points="28.4,40.3 29,41.9 18,46.5 17.3,44.9 		"/>
		
			<radialGradient id="SVGID_12_" cx="395.4642" cy="-323.8849" r="1.5867" gradientTransform="matrix(0.3847 0.923 0.923 -0.3847 164.5028 -443.9395)" gradientUnits="userSpaceOnUse">
			<stop  offset="0" style="stop-color:#616264"/>
			<stop  offset="1" style="stop-color:#3D3D3D"/>
		</radialGradient>
		<circle fill="url(#SVGID_12_)" cx="17.7" cy="45.7" r="1.6"/>
	</g>
	<g>
		
			<linearGradient id="SVGID_13_" gradientUnits="userSpaceOnUse" x1="2462.1418" y1="543.3762" x2="2463.9048" y2="543.3762" gradientTransform="matrix(-0.9247 -0.3807 0.3807 -0.9247 2099.7314 1489.2017)">
			<stop  offset="0" style="stop-color:#3D3D3D"/>
			<stop  offset="0.5" style="stop-color:#5C5E5F"/>
			<stop  offset="1" style="stop-color:#3D3D3D"/>
		</linearGradient>
		<polygon fill="url(#SVGID_13_)" points="30.4,43.3 32.1,44 27.5,55 25.9,54.3 		"/>
		
			<radialGradient id="SVGID_14_" cx="36.1763" cy="537.4116" r="1.5867" gradientTransform="matrix(0.9247 0.3807 0.3807 -0.9247 -211.3166 537.8576)" gradientUnits="userSpaceOnUse">
			<stop  offset="0" style="stop-color:#616264"/>
			<stop  offset="1" style="stop-color:#3D3D3D"/>
		</radialGradient>
		<circle fill="url(#SVGID_14_)" cx="26.7" cy="54.7" r="1.6"/>
	</g>
	<g>
		
			<linearGradient id="SVGID_15_" gradientUnits="userSpaceOnUse" x1="2107.168" y1="1406.4596" x2="2108.9312" y2="1406.4596" gradientTransform="matrix(-0.923 0.3847 -0.3847 -0.923 2524.0339 536.3816)">
			<stop  offset="0" style="stop-color:#3D3D3D"/>
			<stop  offset="0.5" style="stop-color:#5C5E5F"/>
			<stop  offset="1" style="stop-color:#3D3D3D"/>
		</linearGradient>
		<polygon fill="url(#SVGID_15_)" points="34,44 35.7,43.3 40.3,54.3 38.6,55 		"/>
		
			<radialGradient id="SVGID_16_" cx="391.15" cy="1400.495" r="1.5867" gradientTransform="matrix(0.923 -0.3847 -0.3847 -0.923 217.1743 1497.8374)" gradientUnits="userSpaceOnUse">
			<stop  offset="0" style="stop-color:#616264"/>
			<stop  offset="1" style="stop-color:#3D3D3D"/>
		</radialGradient>
		<circle fill="url(#SVGID_16_)" cx="39.4" cy="54.6" r="1.6"/>
	</g>
	<g>
		
			<linearGradient id="SVGID_17_" gradientUnits="userSpaceOnUse" x1="1245.8717" y1="1765.7474" x2="1247.6346" y2="1765.7474" gradientTransform="matrix(-0.3807 0.9247 -0.9247 -0.3807 2150.3154 -437.3911)">
			<stop  offset="0" style="stop-color:#3D3D3D"/>
			<stop  offset="0.5" style="stop-color:#5C5E5F"/>
			<stop  offset="1" style="stop-color:#3D3D3D"/>
		</linearGradient>
		<polygon fill="url(#SVGID_17_)" points="37.1,41.9 37.7,40.3 48.8,44.8 48.1,46.4 		"/>
		
			<radialGradient id="SVGID_18_" cx="1252.4464" cy="1759.7828" r="1.5867" gradientTransform="matrix(0.3807 -0.9247 -0.9247 -0.3807 1198.9713 1873.6569)" gradientUnits="userSpaceOnUse">
			<stop  offset="0" style="stop-color:#616264"/>
			<stop  offset="1" style="stop-color:#3D3D3D"/>
		</radialGradient>
		<circle fill="url(#SVGID_18_)" cx="48.4" cy="45.6" r="1.6"/>
	</g>
	<g>
		
			<linearGradient id="SVGID_19_" gradientUnits="userSpaceOnUse" x1="382.7883" y1="1410.7738" x2="384.5512" y2="1410.7738" gradientTransform="matrix(0.3847 0.923 -0.923 0.3847 1197.4954 -861.6935)">
			<stop  offset="0" style="stop-color:#3D3D3D"/>
			<stop  offset="0.5" style="stop-color:#5C5E5F"/>
			<stop  offset="1" style="stop-color:#3D3D3D"/>
		</linearGradient>
		<polygon fill="url(#SVGID_19_)" points="37.7,38.3 37.1,36.7 48.1,32.1 48.7,33.7 		"/>
		
			<radialGradient id="SVGID_20_" cx="2115.5298" cy="1404.8091" r="1.5867" gradientTransform="matrix(-0.3847 -0.923 -0.923 0.3847 2158.9512 1445.166)" gradientUnits="userSpaceOnUse">
			<stop  offset="0" style="stop-color:#616264"/>
			<stop  offset="1" style="stop-color:#3D3D3D"/>
		</radialGradient>
		<circle fill="url(#SVGID_20_)" cx="48.4" cy="32.9" r="1.6"/>
	</g>
</g>
<g>
	<radialGradient id="SVGID_21_" cx="72.1885" cy="26.1509" r="10.3926" gradientUnits="userSpaceOnUse">
		<stop  offset="0" style="stop-color:#616264"/>
		<stop  offset="1" style="stop-color:#3D3D3D"/>
	</radialGradient>
	<ellipse fill="url(#SVGID_21_)" cx="72.2" cy="26.2" rx="6.6" ry="13.1"/>
	<ellipse fill="none" stroke="#2D2D2D" stroke-width="1.3127" stroke-miterlimit="10" cx="72.6" cy="26.2" rx="6.6" ry="13.1"/>
</g>
</svg>
