<?xml version="1.0" encoding="utf-8"?>
<!-- Generator: Adobe Illustrator 24.3.0, SVG Export Plug-In . SVG Version: 6.00 Build 0)  -->
<svg version="1.1" id="Layer_1" xmlns="http://www.w3.org/2000/svg" xmlns:xlink="http://www.w3.org/1999/xlink" x="0px" y="0px"
	 viewBox="0 0 90.2 89" enable-background="new 0 0 90.2 89" xml:space="preserve">
<linearGradient id="SVGID_1_" gradientUnits="userSpaceOnUse" x1="687.3982" y1="-1162.8663" x2="687.3982" y2="-1189.1409" gradientTransform="matrix(-3.464551e-07 1 1 3.464551e-07 1206.3096 -659.0427)">
	<stop  offset="0" style="stop-color:#616264"/>
	<stop  offset="0.5324" style="stop-color:#8D8C8E"/>
	<stop  offset="1" style="stop-color:#616264"/>
</linearGradient>
<path fill="url(#SVGID_1_)" d="M17.2,48c0,0,26.3-0.5,26.3-26.3l0-13.1l-26.3,0L17.2,48z"/>
<linearGradient id="SVGID_2_" gradientUnits="userSpaceOnUse" x1="2483.7722" y1="78.7536" x2="2483.7722" y2="49.8298" gradientTransform="matrix(-1 0 0 1 2527.2183 0)">
	<stop  offset="0" style="stop-color:#616264"/>
	<stop  offset="0.5324" style="stop-color:#8D8C8E"/>
	<stop  offset="1" style="stop-color:#616264"/>
</linearGradient>
<path fill="url(#SVGID_2_)" d="M65.1,73.4L45.9,51c-1.3-1.5-3.7-1.5-5,0L21.8,73.4c-1.8,2.1-0.3,5.4,2.5,5.4h38.4
	C65.4,78.8,66.9,75.5,65.1,73.4z"/>
<radialGradient id="SVGID_3_" cx="707.0789" cy="-1162.8633" r="26.2746" gradientTransform="matrix(-3.464551e-07 1 1 3.464551e-07 1206.3096 -659.0427)" gradientUnits="userSpaceOnUse">
	<stop  offset="0" style="stop-color:#616264"/>
	<stop  offset="0.5415" style="stop-color:#8D8C8E"/>
	<stop  offset="1" style="stop-color:#616264"/>
</radialGradient>
<circle fill="url(#SVGID_3_)" cx="43.4" cy="48" r="26.3"/>
<path fill="none" stroke="#4C4C4D" stroke-linecap="round" stroke-linejoin="round" stroke-miterlimit="10" d="M60.5,68.3
	c5.6-4.8,9.2-12,9.2-20C69.7,33.8,58,22,43.4,22V8.9H17.2l0,39.4c0,8,3.6,15.1,9.2,20l-4.6,5.4C20,75.7,21.5,79,24.3,79h38.4
	c2.8,0,4.3-3.3,2.5-5.4L60.5,68.3z"/>
<circle opacity="0.33" fill="#44B2E5" cx="43.4" cy="48" r="15.5"/>
<radialGradient id="SVGID_4_" cx="43.4461" cy="48.0357" r="17.5902" gradientUnits="userSpaceOnUse">
	<stop  offset="0" style="stop-color:#616264"/>
	<stop  offset="1" style="stop-color:#3D3D3D"/>
</radialGradient>
<path fill="url(#SVGID_4_)" stroke="#57C9E8" stroke-width="1.3127" stroke-miterlimit="10" d="M48.5,31.2c-13.6-3.8-25.8,8.3-22,22
	c1.6,5.7,6.1,10.2,11.8,11.8c13.6,3.8,25.8-8.3,22-22C58.7,37.3,54.2,32.8,48.5,31.2z M43.9,60.2c-0.1,0-0.3,0-0.4,0s-0.3,0-0.4,0
	c-4.4-0.3-7.3-4.9-5.8-9l0.8-2.3l4.8-13.3c0.2-0.5,0.8-0.5,1,0l4.8,13.3l0.8,2.3C51.1,55.3,48.3,59.9,43.9,60.2z"/>
</svg>
