<?xml version="1.0" encoding="utf-8"?>
<!-- Generator: Adobe Illustrator 24.3.0, SVG Export Plug-In . SVG Version: 6.00 Build 0)  -->
<svg version="1.1" id="Layer_1" xmlns="http://www.w3.org/2000/svg" xmlns:xlink="http://www.w3.org/1999/xlink" x="0px" y="0px"
	 viewBox="0 0 368.6 207.8" enable-background="new 0 0 368.6 207.8" xml:space="preserve">
<linearGradient id="SVGID_1_" gradientUnits="userSpaceOnUse" x1="197.4359" y1="10.222" x2="197.4359" y2="165.761" gradientTransform="matrix(-1 0 0 1 382.1352 0)">
	<stop  offset="4.298548e-02" style="stop-color:#787A7C"/>
	<stop  offset="0.1644" style="stop-color:#929497"/>
	<stop  offset="0.3145" style="stop-color:#A9ABAD"/>
	<stop  offset="0.4955" style="stop-color:#A9ABAD"/>
	<stop  offset="0.6633" style="stop-color:#7C7E80"/>
	<stop  offset="0.8555" style="stop-color:#383838"/>
	<stop  offset="1" style="stop-color:#616264"/>
</linearGradient>
<path fill="url(#SVGID_1_)" d="M48.5,10.2H204h116.9c21.4,0,38.7,34.8,38.7,77.8s-17.3,77.8-38.7,77.8H204H48.5
	c-21.4,0-38.7-34.8-38.7-77.8S27.1,10.2,48.5,10.2z"/>
<radialGradient id="SVGID_2_" cx="60.846" cy="87.9915" r="40.0049" fx="40.5622" fy="88.0362" gradientTransform="matrix(-1 0 0 1.9052 382.1352 -79.6492)" gradientUnits="userSpaceOnUse">
	<stop  offset="0" style="stop-color:#B8B9BB"/>
	<stop  offset="0.1083" style="stop-color:#B3B5B7"/>
	<stop  offset="0.2247" style="stop-color:#A9ABAD"/>
	<stop  offset="0.2526" style="stop-color:#A4A6A8"/>
	<stop  offset="0.7503" style="stop-color:#727274"/>
	<stop  offset="1" style="stop-color:#616264"/>
</radialGradient>
<ellipse fill="url(#SVGID_2_)" cx="321.3" cy="88" rx="38.7" ry="77.8"/>
<linearGradient id="SVGID_3_" gradientUnits="userSpaceOnUse" x1="52.3793" y1="8.1224" x2="52.3793" y2="167.8606">
	<stop  offset="0" style="stop-color:#383739"/>
	<stop  offset="0.501" style="stop-color:#7E7F81"/>
	<stop  offset="1" style="stop-color:#383739"/>
</linearGradient>
<path fill="none" stroke="url(#SVGID_3_)" stroke-width="2.0279" stroke-linecap="round" stroke-miterlimit="10" d="M72,166.8
	c-21.7,0-39.2-35.3-39.2-78.9S50.3,9.1,72,9.1"/>
<linearGradient id="SVGID_4_" gradientUnits="userSpaceOnUse" x1="321.2892" y1="9.222" x2="321.2892" y2="166.761">
	<stop  offset="0" style="stop-color:#383739"/>
	<stop  offset="0.501" style="stop-color:#7E7F81"/>
	<stop  offset="1" style="stop-color:#383739"/>
</linearGradient>
<path fill="none" stroke="url(#SVGID_4_)" stroke-width="2" stroke-linecap="round" stroke-miterlimit="10" d="M322.2,165.8
	c-21.4,0-38.7-34.8-38.7-77.8s17.3-77.8,38.7-77.8c0,0,36.8,4.7,36.8,77.8S322.2,165.8,322.2,165.8z"/>
<linearGradient id="SVGID_5_" gradientUnits="userSpaceOnUse" x1="275.649" y1="8.1224" x2="275.649" y2="167.8606">
	<stop  offset="0" style="stop-color:#383739"/>
	<stop  offset="0.501" style="stop-color:#7E7F81"/>
	<stop  offset="1" style="stop-color:#383739"/>
</linearGradient>
<path fill="none" stroke="url(#SVGID_5_)" stroke-width="2.0279" stroke-linecap="round" stroke-miterlimit="10" d="M295.3,166.8
	c-21.7,0-39.2-35.3-39.2-78.9s17.6-78.9,39.2-78.9"/>
<linearGradient id="SVGID_6_" gradientUnits="userSpaceOnUse" x1="28.266" y1="8.1224" x2="28.266" y2="167.8606">
	<stop  offset="0" style="stop-color:#383739"/>
	<stop  offset="0.501" style="stop-color:#7E7F81"/>
	<stop  offset="1" style="stop-color:#383739"/>
</linearGradient>
<path fill="none" stroke="url(#SVGID_6_)" stroke-width="2.0279" stroke-linecap="round" stroke-miterlimit="10" d="M47.9,166.8
	c-21.7,0-39.2-35.3-39.2-78.9S26.2,9.1,47.9,9.1"/>
<linearGradient id="SVGID_7_" gradientUnits="userSpaceOnUse" x1="60.3124" y1="169.7106" x2="118.3068" y2="169.7106">
	<stop  offset="0" style="stop-color:#A9ABAD"/>
	<stop  offset="1" style="stop-color:#383838"/>
</linearGradient>
<path fill="url(#SVGID_7_)" stroke="#383739" stroke-miterlimit="10" d="M104.6,185H74.1v-37.4c0-3.8-3.1-6.9-6.9-6.9
	c-3.8,0-6.9,3.1-6.9,6.9v51.1h58v-32.4h-13.7V185z"/>
<linearGradient id="SVGID_8_" gradientUnits="userSpaceOnUse" x1="152.8559" y1="169.7106" x2="210.8506" y2="169.7106">
	<stop  offset="0" style="stop-color:#A9ABAD"/>
	<stop  offset="1" style="stop-color:#383838"/>
</linearGradient>
<path fill="url(#SVGID_8_)" stroke="#383739" stroke-miterlimit="10" d="M197.1,185h-30.5v-37.4c0-3.8-3.1-6.9-6.9-6.9
	c-3.8,0-6.9,3.1-6.9,6.9v51.1h58v-32.4h-13.7V185z"/>
<linearGradient id="SVGID_9_" gradientUnits="userSpaceOnUse" x1="245.3997" y1="169.7106" x2="303.3941" y2="169.7106">
	<stop  offset="0" style="stop-color:#A9ABAD"/>
	<stop  offset="1" style="stop-color:#383838"/>
</linearGradient>
<path fill="url(#SVGID_9_)" stroke="#383739" stroke-miterlimit="10" d="M289.6,185h-30.5v-37.4c0-3.8-3.1-6.9-6.9-6.9
	c-3.8,0-6.9,3.1-6.9,6.9v51.1h58v-32.4h-13.7V185z"/>
</svg>
