<?xml version="1.0" encoding="utf-8"?>
<!-- Generator: Adobe Illustrator 24.3.0, SVG Export Plug-In . SVG Version: 6.00 Build 0)  -->
<svg version="1.1" id="Layer_1" xmlns="http://www.w3.org/2000/svg" xmlns:xlink="http://www.w3.org/1999/xlink" x="0px" y="0px"
	 viewBox="0 0 160.8 100" enable-background="new 0 0 160.8 100" xml:space="preserve">
<g>
	<linearGradient id="SVGID_1_" gradientUnits="userSpaceOnUse" x1="70.2398" y1="54.7796" x2="90.2358" y2="54.7796">
		<stop  offset="0" style="stop-color:#6F7173"/>
		<stop  offset="0.501" style="stop-color:#D3D5D6"/>
		<stop  offset="1" style="stop-color:#6F7173"/>
	</linearGradient>
	<polygon fill="url(#SVGID_1_)" points="70.2,89.8 90.2,89.8 90.2,29.8 80.2,19.8 70.2,29.8 	"/>
	<linearGradient id="SVGID_2_" gradientUnits="userSpaceOnUse" x1="80.2378" y1="29.7845" x2="80.2378" y2="9.7884">
		<stop  offset="0" style="stop-color:#6F7173"/>
		<stop  offset="0.501" style="stop-color:#D3D5D6"/>
		<stop  offset="1" style="stop-color:#6F7173"/>
	</linearGradient>
	<path fill="url(#SVGID_2_)" d="M10.3,29.8c1.6,0,60,0,60,0l10-10l10,10h60v-20h-140V29.8z"/>
</g>
<linearGradient id="SVGID_3_" gradientUnits="userSpaceOnUse" x1="-313.7237" y1="650.8946" x2="-313.7237" y2="627.5775" gradientTransform="matrix(-1 0 0 -1 -167.0973 659.0225)">
	<stop  offset="0" style="stop-color:#333334"/>
	<stop  offset="0.501" style="stop-color:#7D7E81"/>
	<stop  offset="1" style="stop-color:#333334"/>
</linearGradient>
<polygon fill="url(#SVGID_3_)" points="143,8.1 150.2,8.1 150.2,31.4 143,31.4 "/>
<linearGradient id="SVGID_4_" gradientUnits="userSpaceOnUse" x1="-180.9465" y1="650.8946" x2="-180.9465" y2="627.5775" gradientTransform="matrix(-1 0 0 -1 -167.0973 659.0225)">
	<stop  offset="0" style="stop-color:#333334"/>
	<stop  offset="0.501" style="stop-color:#7D7E81"/>
	<stop  offset="1" style="stop-color:#333334"/>
</linearGradient>
<polygon fill="url(#SVGID_4_)" points="10.3,8.1 17.4,8.1 17.4,31.4 10.3,31.4 "/>
<linearGradient id="SVGID_5_" gradientUnits="userSpaceOnUse" x1="232.9334" y1="628.0925" x2="232.9334" y2="604.7755" gradientTransform="matrix(-6.123234e-17 -1 1 -6.123234e-17 -536.1962 319.1084)">
	<stop  offset="0" style="stop-color:#333334"/>
	<stop  offset="0.501" style="stop-color:#7D7E81"/>
	<stop  offset="1" style="stop-color:#333334"/>
</linearGradient>
<polygon fill="url(#SVGID_5_)" points="91.9,82.6 91.9,89.8 68.6,89.8 68.6,82.6 "/>
</svg>
